<?xml version="1.0" encoding="UTF-8" standalone="no"?>
<svg
   version="1.2"
   width="104.69mm"
   height="189.28mm"
   viewBox="0 0 10469 18928"
   preserveAspectRatio="xMidYMid"
   fill-rule="evenodd"
   stroke-width="28.222"
   stroke-linejoin="round"
   xml:space="preserve"
   id="svg175"
   sodipodi:docname="JesusChrist2a.svg"
   inkscape:version="1.3.2 (091e20ef0f, 2023-11-25)"
   xmlns:inkscape="http://www.inkscape.org/namespaces/inkscape"
   xmlns:sodipodi="http://sodipodi.sourceforge.net/DTD/sodipodi-0.dtd"
   xmlns="http://www.w3.org/2000/svg"
   xmlns:svg="http://www.w3.org/2000/svg"
   xmlns:ooo="http://xml.openoffice.org/svg/export"><sodipodi:namedview
   id="namedview177"
   pagecolor="#ffffff"
   bordercolor="#000000"
   borderopacity="0.25"
   inkscape:showpageshadow="2"
   inkscape:pageopacity="0.0"
   inkscape:pagecheckerboard="0"
   inkscape:deskcolor="#d1d1d1"
   inkscape:document-units="mm"
   showgrid="false"
   inkscape:zoom="1.1364447"
   inkscape:cx="197.98588"
   inkscape:cy="357.69448"
   inkscape:window-width="1920"
   inkscape:window-height="1011"
   inkscape:window-x="0"
   inkscape:window-y="0"
   inkscape:window-maximized="1"
   inkscape:current-layer="layer1" />
 <defs
   class="ClipPathGroup"
   id="defs81">
  <clipPath
   id="presentation_clip_path"
   clipPathUnits="userSpaceOnUse">
   <rect
   x="0"
   y="0"
   width="10469"
   height="18928"
   id="rect75" />
  </clipPath>
  <clipPath
   id="presentation_clip_path_shrink"
   clipPathUnits="userSpaceOnUse">
   <rect
   x="10"
   y="18"
   width="10449"
   height="18891"
   id="rect78" />
  </clipPath>
 </defs>
 <defs
   class="TextShapeIndex"
   id="defs85">
  <g
   ooo:slide="id1"
   ooo:id-list="id3 id4 id5 id6 id7"
   id="g83" />
 </defs>
 <defs
   class="EmbeddedBulletChars"
   id="defs117">
  <g
   id="bullet-char-template-57356"
   transform="scale(0.00048828125,-0.00048828125)">
   <path
   d="M 580,1141 L 1163,571 580,0 -4,571 580,1141 Z"
   id="path87" />
  </g>
  <g
   id="bullet-char-template-57354"
   transform="scale(0.00048828125,-0.00048828125)">
   <path
   d="M 8,1128 L 1137,1128 1137,0 8,0 8,1128 Z"
   id="path90" />
  </g>
  <g
   id="bullet-char-template-10146"
   transform="scale(0.00048828125,-0.00048828125)">
   <path
   d="M 174,0 L 602,739 174,1481 1456,739 174,0 Z M 1358,739 L 309,1346 659,739 1358,739 Z"
   id="path93" />
  </g>
  <g
   id="bullet-char-template-10132"
   transform="scale(0.00048828125,-0.00048828125)">
   <path
   d="M 2015,739 L 1276,0 717,0 1260,543 174,543 174,936 1260,936 717,1481 1274,1481 2015,739 Z"
   id="path96" />
  </g>
  <g
   id="bullet-char-template-10007"
   transform="scale(0.00048828125,-0.00048828125)">
   <path
   d="M 0,-2 C -7,14 -16,27 -25,37 L 356,567 C 262,823 215,952 215,954 215,979 228,992 255,992 264,992 276,990 289,987 310,991 331,999 354,1012 L 381,999 492,748 772,1049 836,1024 860,1049 C 881,1039 901,1025 922,1006 886,937 835,863 770,784 769,783 710,716 594,584 L 774,223 C 774,196 753,168 711,139 L 727,119 C 717,90 699,76 672,76 641,76 570,178 457,381 L 164,-76 C 142,-110 111,-127 72,-127 30,-127 9,-110 8,-76 1,-67 -2,-52 -2,-32 -2,-23 -1,-13 0,-2 Z"
   id="path99" />
  </g>
  <g
   id="bullet-char-template-10004"
   transform="scale(0.00048828125,-0.00048828125)">
   <path
   d="M 285,-33 C 182,-33 111,30 74,156 52,228 41,333 41,471 41,549 55,616 82,672 116,743 169,778 240,778 293,778 328,747 346,684 L 369,508 C 377,444 397,411 428,410 L 1163,1116 C 1174,1127 1196,1133 1229,1133 1271,1133 1292,1118 1292,1087 L 1292,965 C 1292,929 1282,901 1262,881 L 442,47 C 390,-6 338,-33 285,-33 Z"
   id="path102" />
  </g>
  <g
   id="bullet-char-template-9679"
   transform="scale(0.00048828125,-0.00048828125)">
   <path
   d="M 813,0 C 632,0 489,54 383,161 276,268 223,411 223,592 223,773 276,916 383,1023 489,1130 632,1184 813,1184 992,1184 1136,1130 1245,1023 1353,916 1407,772 1407,592 1407,412 1353,268 1245,161 1136,54 992,0 813,0 Z"
   id="path105" />
  </g>
  <g
   id="bullet-char-template-8226"
   transform="scale(0.00048828125,-0.00048828125)">
   <path
   d="M 346,457 C 273,457 209,483 155,535 101,586 74,649 74,723 74,796 101,859 155,911 209,963 273,989 346,989 419,989 480,963 531,910 582,859 608,796 608,723 608,648 583,586 532,535 482,483 420,457 346,457 Z"
   id="path108" />
  </g>
  <g
   id="bullet-char-template-8211"
   transform="scale(0.00048828125,-0.00048828125)">
   <path
   d="M -4,459 L 1135,459 1135,606 -4,606 -4,459 Z"
   id="path111" />
  </g>
  <g
   id="bullet-char-template-61548"
   transform="scale(0.00048828125,-0.00048828125)">
   <path
   d="M 173,740 C 173,903 231,1043 346,1159 462,1274 601,1332 765,1332 928,1332 1067,1274 1183,1159 1299,1043 1357,903 1357,740 1357,577 1299,437 1183,322 1067,206 928,148 765,148 601,148 462,206 346,322 231,437 173,577 173,740 Z"
   id="path114" />
  </g>
 </defs>
 
 
<g
   inkscape:groupmode="layer"
   id="layer1"
   inkscape:label="Layer 1"><path
     fill="#100f0d"
     stroke="none"
     d="m 3259,18431 c -9,-4 -19,-7 -32,-4 4,13 12,20 21,25 9,4 19,7 32,4 -4,-13 -12,-20 -21,-25 z m 170,112 c -9,-4 -18,-8 -27,-10 -10,-2 -19,-4 -30,-3 -5,1 -10,2 -15,4 -5,1 -11,5 -13,10 11,-1 18,3 26,5 9,3 18,5 26,7 9,2 18,4 28,5 9,0 19,1 29,-2 -8,-6 -15,-12 -24,-16 z m 170,61 c -18,-2 -37,-2 -54,7 17,10 33,14 50,17 17,2 34,4 53,-1 -14,-13 -32,-19 -49,-23 z m 198,19 c 26,0 49,0 73,5 23,5 46,11 68,20 44,18 85,43 127,69 -14,-20 -33,-38 -53,-53 -20,-15 -42,-28 -66,-38 -23,-9 -49,-15 -74,-16 -26,-2 -52,3 -75,13 z M 410,10036 c -18,-16 -37,-25 -58,-33 -21,-6 -42,-12 -65,-10 17,16 37,25 57,33 21,7 42,12 66,10 z m -187,190 c 23,16 48,25 74,32 25,7 52,12 80,10 -23,-16 -48,-25 -74,-33 -26,-6 -52,-11 -80,-9 z m 780,86 c -24,-1 -48,-1 -73,6 23,11 47,15 71,18 25,1 49,1 74,-7 -24,-11 -48,-15 -72,-17 z m 141,-429 c -28,2 -56,6 -83,17 28,7 56,8 84,7 27,-2 55,-5 82,-16 -28,-8 -56,-9 -83,-8 z m -261,4 c -21,-2 -42,-2 -63,5 19,12 40,16 60,19 21,2 42,2 63,-5 -19,-12 -40,-16 -60,-19 z m -234,-31 c -28,-4 -56,-6 -85,-2 26,14 53,21 81,25 28,4 56,7 85,2 -26,-14 -54,-20 -81,-25 z M 496,9430 c 19,-24 39,-46 62,-66 29,-26 63,-48 102,-59 10,-3 20,-3 31,-5 9,0 22,1 29,1 18,1 36,-2 54,-7 36,-9 72,-22 106,-39 34,-16 67,-35 98,-56 32,-21 61,-45 88,-71 28,-26 51,-56 68,-90 9,-16 15,-34 19,-53 3,-18 4,-37 1,-57 5,19 7,39 5,58 -2,20 -7,39 -14,57 -16,36 -39,69 -66,98 -22,23 -46,44 -72,64 -4,34 -5,67 0,100 5,37 17,73 34,107 17,34 38,65 63,94 25,28 52,56 86,75 -38,-11 -71,-35 -100,-62 -28,-28 -52,-61 -70,-97 -18,-35 -30,-75 -31,-115 -2,-34 3,-67 13,-99 -35,26 -73,49 -112,68 -35,17 -72,31 -111,40 -19,4 -39,8 -60,6 -11,-1 -18,-1 -28,-2 -9,1 -18,0 -26,3 -36,7 -70,27 -100,50 -23,17 -45,37 -66,58 l 5,2 1,16 c 0,9 -2,12 -20,42 -29,48 -89,148 -131,256 0,1 0,2 0,3 26,6 51,18 74,30 26,15 52,32 73,55 -31,-7 -58,-19 -85,-34 -22,-13 -45,-28 -64,-46 -97,258 -184,597 -194,659 -15,89 15,164 51,175 19,6 83,-44 135,-104 l 14,-16 156,-590 23,6 -56,212 c 24,0 46,5 69,11 26,7 51,16 75,32 -29,2 -55,-3 -82,-10 -22,-6 -43,-14 -64,-26 l -82,310 c 27,0 54,4 80,10 30,7 59,16 87,32 -32,2 -62,-3 -92,-9 -26,-7 -52,-15 -77,-27 l -2,7 4,-4 -12,81 c -14,95 -30,261 -12,299 21,41 84,58 100,57 20,-11 68,-96 106,-189 l 15,-35 v 1 l 145,-676 23,5 -30,139 c 21,-3 42,-2 62,1 25,4 50,9 74,22 -27,6 -52,4 -77,1 -21,-3 -41,-7 -60,-15 l -54,251 c 18,-3 36,-3 54,-2 25,1 50,5 75,16 -26,8 -51,8 -76,7 -19,-1 -37,-3 -56,-9 l -60,282 5,5 c 23,26 57,56 70,58 57,10 114,-109 129,-152 l 10,-27 7,4 181,-669 23,6 -69,256 c 24,-7 47,-6 71,-4 23,3 46,8 68,20 -25,7 -48,6 -71,4 -23,-3 -46,-8 -68,-20 l -114,419 c 12,6 57,24 127,14 63,-9 105,-139 116,-186 12,-41 318,-994 398,-1130 33,-55 11,-167 -53,-273 -9,-14 -18,-29 -28,-43 -58,-63 -142,-117 -266,-134 -9,-4 -17,-7 -26,-10 -121,-4 -194,-38 -229,-59 -6,-1 -12,-2 -18,-2 -1,0 -1,0 -2,1 -231,120 -370,221 -412,300 -36,68 -123,184 -207,296 -91,122 -195,261 -208,306 -1,6 0,7 1,8 37,25 215,-18 256,-48 24,-18 65,-65 98,-104 57,-65 66,-75 85,-68 z m -230,1729 288,217 72,144 224,-840 23,6 -231,866 276,548 601,-333 197,-1543 -101,1510 591,-158 263,-480 -16,-31 h -1 v -1 l -247,-489 206,-1283 c -20,-62 -44,-134 -71,-215 -60,-184 -135,-412 -214,-657 l -208,649 -64,197 c 159,287 290,703 351,1309 l -759,-1007 51,-198 c -112,279 -350,1022 -353,1029 -4,21 -48,205 -154,221 -63,9 -110,-1 -136,-11 -23,54 -86,175 -173,160 -23,-4 -52,-27 -72,-47 -28,62 -79,167 -120,183 -3,2 -7,2 -12,3 -37,1 -117,-26 -146,-84 -1,-3 -2,-6 -3,-9 z m 2660,-2210 -3,-319 h 4 l -4,-3 -37,-464 229,-32 c 23,-372 246,-3955 293,-4750 -75,-66 -136,-135 -136,-135 0,0 11,-19 26,-50 -143,110 -349,276 -538,433 l -1450,2304 252,476 1007,1902 143,-890 c -34,-50 -71,-101 -107,-151 l -129,-177 -260,-350 c -175,-234 -351,-466 -527,-698 189,222 377,445 564,668 l 280,337 138,169 c 20,26 41,51 61,76 l 24,-152 6,-79 -4,2 c -129,-311 -262,-621 -397,-930 -67,-153 -136,-307 -207,-460 -35,-76 -71,-153 -108,-228 -19,-38 -38,-75 -58,-112 -21,-37 -40,-75 -68,-106 29,30 51,67 73,103 22,36 43,73 63,109 41,74 81,149 120,224 78,149 153,300 228,450 102,205 201,411 300,617 l -206,-2440 289,2394 4,-57 57,-748 c 21,-249 40,-498 64,-748 23,-249 49,-498 76,-746 15,-125 30,-249 47,-373 8,-62 17,-124 26,-186 5,-31 11,-62 17,-93 7,-30 11,-62 24,-90 -11,29 -13,61 -17,91 -4,31 -7,62 -10,94 -6,62 -11,124 -15,186 -10,125 -18,250 -26,375 l -48,748 -49,749 -52,747 -55,748 c -20,250 -38,499 -59,749 -13,161 -27,322 -41,483 l -7,73 c -11,132 -23,263 -36,395 -15,151 -31,302 -48,453 -23,387 -52,869 -84,1403 v -1 l -13,211 c -4,76 -9,151 -13,225 142,-869 280,-1709 375,-2287 7,-48 15,-94 22,-139 z m -88,6690 c 32,-99 97,-393 136,-570 l 19,-196 -60,-5376 c -300,1828 -853,5214 -911,5566 z m 21,2328 6,-1970 -588,-221 c -88,1646 -105,2184 -101,2325 108,-19 388,-74 683,-134 z m 512,-105 204,13 c -1,-3 -1,-7 -2,-10 -2,-21 -3,-42 -4,-62 -2,-41 -3,-82 -4,-123 -2,-81 -2,-161 -2,-242 1,-161 3,-322 6,-483 7,-323 16,-645 26,-966 5,322 12,644 22,965 5,161 10,322 18,483 3,80 7,160 13,240 3,40 6,80 10,119 2,19 4,39 7,58 1,9 2,19 4,27 l 1399,90 c 93,-1299 216,-3703 340,-6235 -74,146 -150,291 -231,434 -55,94 -110,188 -181,274 -9,11 -18,21 -29,31 -10,10 -21,20 -38,27 -8,3 -22,5 -34,-1 -11,-6 -17,-16 -20,-24 l -16,-38 c -19,-50 -41,-100 -62,-150 -170,-401 -342,-800 -514,-1200 l -858,-1991 -79,-184 -34,-23 v 29 l 1,28 33,149 456,2050 c 91,405 183,811 277,1217 47,202 94,405 143,607 24,101 49,202 74,303 13,50 26,101 40,151 l 21,75 c 8,25 14,50 27,73 -13,-22 -20,-48 -29,-73 l -22,-74 c -15,-50 -29,-100 -42,-150 -28,-101 -54,-201 -81,-302 -52,-201 -103,-403 -154,-605 -102,-403 -201,-808 -300,-1212 l -429,-1770 8,209 34,904 72,1808 86,2066 c 36,468 60,773 61,792 1,23 -8,42 -26,54 l 30,703 -49,-516 1,71 -414,-217 -101,797 -154,-58 77,1948 c 143,-29 287,-59 412,-85 z m -152,379 c -29,35 -50,63 -60,94 9,-3 17,-2 24,0 8,3 15,8 20,20 -11,6 -20,5 -28,3 -7,-3 -13,-7 -18,-15 -5,21 -4,44 5,70 5,-5 11,-10 16,-15 10,-9 21,-19 31,-29 9,-10 18,-22 28,-32 19,-21 41,-41 64,-58 23,-17 48,-33 77,-38 -28,7 -52,25 -73,43 -22,18 -42,39 -59,61 -9,10 -17,22 -26,34 -10,11 -20,21 -29,32 -8,8 -16,16 -24,25 0,3 3,95 80,113 l 18,5 99,-88 68,-60 c 23,-20 46,-40 70,-58 -23,19 -44,41 -66,62 l -64,64 -95,97 2,4 c 4,9 50,94 146,62 l 40,-13 c 1,-1 2,-2 3,-3 20,-21 39,-43 58,-65 38,-44 75,-89 111,-135 -33,48 -67,96 -102,143 -17,23 -35,46 -54,69 l -6,7 10,25 c 4,12 34,71 153,29 l 29,-10 7,8 176,-231 -161,246 c 13,12 134,128 249,124 63,-21 343,-272 357,-332 6,-61 3,-367 1,-520 h 48 l -737,-39 -10,10 c -3,-3 -5,-7 -7,-11 l -186,-9 35,32 c -37,40 -140,157 -168,208 -15,26 -34,49 -52,71 z m 2773,102 5,-428 10,-855 28,-1712 c 8,-570 22,-1141 33,-1711 l 38,-1711 c 24,-925 47,-1849 74,-2774 7,-216 13,-432 20,-648 l 55,-1710 31,-855 15,-427 18,-428 -3,428 -5,428 -10,855 -28,1711 c -4,216 -8,432 -12,648 -17,925 -38,1849 -60,2774 l -44,1711 c -16,570 -30,1141 -49,1711 l -55,1711 -31,855 -16,427 -15,378 c 18,0 37,-1 56,-2 531,-17 1003,-115 1263,-263 519,-294 640,-285 728,-277 20,-186 25,-1184 -18,-3505 -33,-1758 -76,-3369 -89,-3492 l -59,-160 -54,4 C 7779,10536 7688,9834 7596,9180 7507,8544 7415,7954 7367,7647 l -19,-5 -9,-172 c -4,-26 -6,-41 -7,-43 l 5,-1 -15,-289 -6,-119 -3,-1 2,-8 -11,-204 h -4 l 3,-30 -9,-159 -56,-1041 c -18,-348 -35,-695 -50,-1043 -7,-173 -14,-347 -19,-521 -2,-87 -4,-174 -5,-261 0,-44 -1,-87 0,-131 1,-21 1,-43 2,-65 l 2,-32 5,-33 -4,33 -1,32 c -1,22 -1,44 -1,65 0,44 2,87 3,131 3,87 6,174 11,260 9,174 20,348 31,521 22,347 48,694 73,1041 l 59,761 245,-2637 -189,3029 228,-770 155,-532 c 51,-178 102,-355 148,-534 -38,181 -82,360 -125,540 l -132,539 -270,1075 -6,-2 7,91 9,116 c 116,-224 234,-447 356,-669 74,-135 149,-270 228,-403 39,-66 80,-133 122,-196 21,-33 43,-65 66,-96 11,-15 23,-31 36,-45 6,-7 13,-14 20,-21 8,-6 15,-13 25,-15 -9,3 -17,10 -24,16 -6,7 -13,14 -19,22 -12,15 -23,31 -34,47 -21,32 -41,65 -60,98 -39,65 -75,133 -111,202 -72,136 -140,274 -207,413 -132,273 -260,549 -384,825 11,66 58,360 119,766 178,-655 858,-1494 1309,-1997 l 10,-11 c 3,-4 7,-7 10,-11 l 19,-21 c 39,-43 79,-87 97,-121 L 7416,3268 6324,2906 c 1,34 -8,66 -30,93 -142,173 -318,131 -303,216 6,30 -10,62 -38,87 -48,578 -165,3014 -288,5579 -5,87 -9,174 -13,261 -161,3361 -342,7092 -465,8836 v 1 l -4,47 c -12,168 -28,305 -42,427 -6,52 -12,100 -16,145 86,71 396,132 864,123 z m 2585,-6930 -119,-790 -182,-572 -383,743 c 0,5 1,10 1,14 l 126,342 83,134 z m 120,345 293,193 230,-561 -448,-1553 -142,-370 -129,145 53,1013 123,815 3,1 z m 1020,-1612 c -26,11 -70,25 -133,23 -107,-4 -170,-183 -176,-201 -3,-7 -242,-552 -397,-867 -63,103 -108,177 -120,198 -39,69 108,861 179,1229 l 228,792 433,-269 z m 241,29 4,-6 -89,-274 c -18,7 -36,12 -54,15 -25,4 -51,6 -77,1 23,-14 48,-20 73,-25 18,-2 36,-4 54,-3 l -80,-244 c -18,10 -38,17 -58,22 -25,5 -50,9 -77,6 23,-15 47,-23 71,-29 20,-5 40,-8 61,-8 l -44,-135 23,-8 214,658 1,-1 18,33 c 48,88 104,168 126,178 16,-2 76,-25 92,-68 15,-40 -18,-203 -42,-296 l -21,-80 4,4 -2,-7 c -23,15 -48,26 -73,35 -30,10 -59,18 -92,19 26,-19 55,-31 84,-41 25,-9 51,-16 79,-18 l -115,-300 c -19,14 -40,24 -61,33 -25,9 -51,17 -80,18 22,-18 46,-30 71,-40 22,-8 44,-15 68,-17 l -78,-206 22,-8 217,570 16,15 c 58,54 126,97 145,89 34,-15 56,-92 32,-180 -16,-60 -138,-388 -261,-635 -18,21 -39,38 -60,53 -25,17 -51,33 -81,43 19,-25 43,-45 67,-62 22,-15 45,-29 71,-39 0,0 -1,-1 -1,-2 -52,-103 -123,-197 -157,-241 -21,-28 -23,-31 -24,-40 v -17 l 3,-2 c -22,-18 -46,-36 -71,-50 -32,-20 -67,-36 -104,-39 -9,-2 -18,0 -27,-1 -9,2 -16,3 -27,5 -21,4 -41,3 -61,1 -39,-5 -77,-15 -114,-28 -41,-15 -81,-34 -119,-56 14,30 23,63 24,97 3,40 -5,80 -19,118 -14,37 -34,72 -60,103 -25,30 -56,57 -93,72 32,-23 56,-53 78,-84 22,-31 40,-64 53,-100 13,-35 22,-72 23,-109 1,-33 -3,-67 -10,-100 -28,-17 -55,-35 -79,-56 -30,-26 -56,-56 -76,-90 -9,-18 -16,-36 -20,-56 -4,-19 -4,-39 -1,-58 0,20 2,39 7,57 6,18 14,35 24,51 21,31 47,58 77,82 30,23 62,43 95,61 34,18 68,33 104,45 36,13 72,23 109,29 18,2 37,4 54,1 8,-1 20,-3 30,-4 10,0 21,-1 31,2 40,6 76,25 107,47 25,18 48,37 69,59 l 7,-4 c 19,-8 29,1 92,60 37,34 83,77 108,92 44,26 226,51 260,22 2,-2 3,-2 0,-8 -17,-44 -135,-171 -239,-283 -95,-103 -193,-209 -237,-273 -50,-74 -198,-160 -440,-256 -4,-1 -8,-3 -11,-4 -31,26 -120,86 -293,97 -104,6 -190,114 -236,213 -53,112 -63,226 -25,277 95,127 498,1043 516,1084 14,43 70,168 133,171 71,2 113,-20 125,-27 l -157,-405 c -21,14 -43,21 -65,27 -23,5 -47,8 -71,4 20,-14 43,-22 65,-27 23,-5 46,-8 71,-4 l -95,-247 22,-8 249,646 7,-5 13,26 c 19,41 89,153 144,138 13,-4 44,-37 64,-65 z M 9540,8242 c -1,2 -2,4 -3,5 1,1 3,1 4,2 z M 8529,6727 7660,8954 c 11,75 21,151 32,228 71,505 141,1037 187,1478 51,-304 178,-885 478,-1465 64,-126 137,-251 218,-373 419,-629 749,-743 922,-748 28,-8 55,-15 82,-20 -56,-205 -427,-1136 -683,-1761 -104,117 -232,266 -367,434 z m -2292,-3887 -6,-17 c -2,-5 -6,-10 -9,-14 -5,-11 -14,-18 -21,-27 -33,-32 -75,-48 -117,-56 39,16 77,38 103,69 26,30 41,70 30,108 -10,38 -36,72 -66,100 -29,30 -65,53 -100,78 39,-17 79,-35 112,-64 34,-27 65,-63 77,-108 l 2,-9 1,-8 1,-18 c -1,-6 -2,-12 -3,-17 0,-6 -1,-12 -4,-17 z m -185,-661 c -26,-26 -56,-48 -90,-62 31,19 59,42 81,70 23,27 42,58 57,90 29,64 44,135 37,205 -7,70 -37,136 -82,189 -47,54 -107,94 -171,128 33,-13 67,-28 98,-47 31,-19 60,-42 86,-68 51,-54 85,-126 92,-200 7,-75 -8,-150 -44,-215 -17,-33 -39,-63 -64,-90 z m -150,-961 c -49,-61 -108,-112 -169,-159 -30,-24 -60,-47 -89,-73 -14,-13 -27,-26 -38,-41 -11,-15 -20,-33 -21,-52 -2,19 5,39 15,55 11,17 23,32 36,46 27,28 57,53 86,78 58,51 115,102 162,161 47,58 84,126 106,198 11,36 17,74 20,112 5,38 3,76 2,114 14,-75 14,-155 -5,-231 -18,-76 -56,-147 -105,-208 z M 4002,826 c 3,-36 8,-72 18,-107 18,-69 50,-135 93,-192 42,-57 97,-106 159,-143 30,-18 63,-33 98,-44 34,-10 71,-18 106,-7 -34,-16 -73,-11 -109,-4 -36,9 -71,22 -104,39 -66,35 -124,85 -169,145 -45,60 -77,129 -92,202 -16,73 -15,148 -4,220 0,-36 -1,-73 4,-109 z M 5605,556 c -22,-41 -45,-81 -72,-119 -53,-76 -117,-144 -194,-198 -77,-52 -167,-89 -262,-87 -24,1 -47,4 -70,11 -23,6 -45,15 -64,28 -20,14 -37,31 -49,51 -12,20 -17,44 -15,67 -25,-5 -66,-6 -112,-4 14,-33 29,-65 49,-94 19,-29 41,-56 68,-79 51,-46 119,-70 187,-67 68,2 135,26 197,57 15,8 31,17 46,25 l 45,28 44,29 c 14,11 29,21 44,31 -52,-49 -108,-93 -171,-129 -31,-18 -63,-33 -97,-45 -35,-11 -71,-19 -107,-20 -74,-3 -150,26 -201,78 -52,51 -86,117 -104,186 -47,2 -100,8 -150,17 0,-23 -8,-46 -21,-64 -14,-19 -33,-35 -54,-46 -21,-11 -44,-18 -67,-21 -23,-4 -47,-5 -71,-3 -94,7 -181,53 -252,113 -71,62 -128,137 -172,218 -23,40 -42,82 -59,125 -8,21 -16,43 -24,65 -6,22 -13,44 -19,66 l 25,-64 c 10,-21 19,-42 29,-63 19,-41 39,-82 64,-120 46,-78 102,-151 171,-209 67,-59 150,-103 239,-113 22,-3 45,-3 67,-1 22,3 44,9 64,18 20,9 39,21 54,38 14,17 23,38 26,61 -71,12 -136,29 -170,50 -83,50 -300,266 -308,386 -8,120 -94,421 -86,467 8,45 30,260 39,317 6,35 3,187 1,294 -26,-58 -56,-113 -82,-170 -33,-68 -62,-139 -80,-213 -18,-73 -23,-150 -16,-227 -9,38 -12,76 -13,115 0,39 4,78 11,116 14,77 43,150 76,220 33,69 71,134 103,202 -1,40 -1,68 -1,68 0,0 15,25 37,58 0,13 -2,26 -6,40 -5,18 -15,34 -27,50 14,-14 26,-30 33,-48 4,-10 6,-20 8,-30 42,59 101,129 135,103 54,-43 180,-466 195,-524 14,-58 271,-156 311,-139 41,17 46,103 18,116 -18,9 -67,23 -111,49 l 310,-16 -48,-35 c 0,0 -15,-96 -7,-119 7,-23 246,61 306,132 60,71 133,477 134,494 1,18 91,-10 130,-12 0,0 -3,-165 -10,-199 -8,-34 110,-502 74,-648 -36,-146 -63,-441 -193,-645 -131,-205 -411,-247 -501,-265 1,-23 8,-45 20,-64 13,-18 31,-33 50,-44 19,-11 40,-19 62,-24 22,-5 44,-7 66,-6 90,1 176,36 249,87 75,51 138,117 192,190 28,36 53,74 76,113 12,20 23,40 35,60 l 32,60 c -8,-21 -17,-42 -26,-63 -10,-21 -20,-42 -30,-62 z m -1951,635 c -18,38 -30,80 -30,122 9,-41 26,-78 46,-114 21,-35 44,-68 71,-99 26,-32 54,-61 85,-88 31,-27 63,-53 99,-73 -40,12 -77,34 -111,59 -34,25 -64,54 -91,87 -27,32 -51,67 -69,106 z m -33,477 c -1,-38 1,-76 9,-113 13,-75 43,-145 84,-208 40,-64 92,-121 144,-177 26,-28 53,-56 77,-86 12,-16 23,-32 31,-50 8,-18 13,-38 10,-57 1,19 -6,38 -15,54 -10,16 -22,31 -35,45 -25,29 -53,55 -81,82 -55,53 -109,110 -151,176 -42,65 -73,140 -82,218 -12,78 -3,156 18,230 -4,-38 -10,-76 -9,-114 z m -51,952 c 15,73 56,141 112,189 29,24 60,43 93,59 33,16 68,27 103,36 -67,-27 -132,-60 -183,-109 -51,-49 -88,-111 -102,-180 -14,-68 -7,-141 16,-207 11,-34 27,-66 46,-96 19,-30 44,-56 73,-78 -32,17 -59,43 -82,71 -22,30 -41,62 -54,96 -28,69 -37,146 -22,219 z m -81,-450 c 28,34 66,57 106,71 -36,-23 -68,-49 -91,-82 -23,-33 -34,-73 -31,-112 1,-39 15,-78 37,-113 22,-34 50,-64 85,-88 -78,31 -141,110 -146,200 -3,44 12,90 40,124 z m 46,795 -5,17 c -2,5 -2,11 -2,17 0,6 -1,12 0,18 l 2,17 2,8 3,9 c 17,44 51,76 87,99 37,25 78,39 119,52 -37,-21 -75,-41 -108,-67 -32,-25 -62,-55 -75,-92 -16,-37 -5,-78 17,-111 24,-33 59,-59 96,-80 -41,13 -82,33 -110,69 -7,9 -15,17 -19,28 -2,5 -5,10 -7,16 z m 2151,-542 c -8,-17 -15,-35 -20,-53 -3,-10 -6,-20 -8,-30 -10,-45 -15,-92 -13,-138 2,-28 6,-57 14,-84 7,-28 18,-55 34,-79 -40,43 -59,103 -66,162 -6,57 -1,116 15,172 1,2 1,3 1,4 7,24 17,47 28,69 17,31 38,60 64,83 22,20 48,37 76,48 28,10 57,16 86,16 -57,-10 -110,-36 -149,-77 -26,-27 -46,-59 -62,-93 z m 254,-247 c -31,28 -58,60 -79,97 -20,37 -34,79 -34,122 1,44 17,88 48,119 30,32 71,49 111,57 -38,-17 -73,-39 -97,-69 -25,-30 -38,-68 -38,-107 0,-39 11,-77 27,-114 17,-36 38,-71 62,-105 z m -71,-736 c 36,80 66,162 80,248 13,85 8,174 -28,253 -35,79 -102,141 -176,187 40,-19 77,-43 111,-73 33,-30 61,-66 82,-106 42,-81 48,-176 34,-265 -14,-88 -46,-173 -86,-252 -41,-79 -90,-154 -145,-222 24,37 47,74 68,113 22,38 42,77 60,117 z m -211,296 c -10,44 -16,92 -2,138 6,23 20,44 39,59 19,14 42,21 64,22 -21,-7 -42,-16 -57,-31 -15,-15 -24,-34 -28,-55 -9,-41 -3,-85 7,-128 10,-42 24,-84 41,-125 17,-41 35,-82 58,-120 -31,33 -55,72 -75,112 -21,41 -37,83 -47,128 z m 104,1198 c -21,29 -54,48 -92,56 9,-1 19,-1 29,-2 9,-1 19,-5 28,-8 10,-3 18,-9 27,-14 8,-5 15,-13 22,-20 28,-30 40,-71 43,-111 2,-39 -5,-79 -20,-115 -16,-36 -41,-70 -75,-88 29,26 46,60 57,94 11,35 17,72 14,108 -2,36 -12,72 -33,100 z M 4019,2721 c -32,22 -54,58 -65,95 -12,38 -14,78 -8,118 7,39 23,78 54,105 8,6 16,13 25,18 9,4 18,9 27,11 10,2 20,4 29,5 10,-1 20,-1 29,-2 -38,-3 -73,-19 -97,-45 -24,-26 -38,-61 -44,-96 -6,-36 -4,-73 3,-109 8,-36 21,-71 47,-100 z m -75,591 c -33,-3 -66,-19 -89,-44 -12,-12 -21,-28 -23,-45 -3,-17 3,-34 15,-48 -13,12 -23,30 -21,49 1,19 9,36 21,51 23,29 58,48 95,54 37,6 78,-2 109,-28 15,-13 26,-32 29,-52 3,-20 0,-40 -6,-58 -13,-36 -36,-66 -61,-93 -26,-26 -54,-49 -84,-70 -60,-40 -125,-72 -192,-95 31,17 63,33 93,52 31,18 60,37 88,59 28,21 55,44 78,70 24,25 44,53 55,85 12,30 9,65 -15,86 -24,21 -59,31 -92,27 z m 87,-1109 c 10,27 17,55 21,83 9,56 8,114 -2,169 -11,56 -32,109 -66,154 -35,44 -85,76 -141,92 29,-4 57,-12 84,-26 26,-13 50,-32 70,-55 41,-44 65,-102 76,-160 11,-59 10,-120 -3,-178 -13,-57 -37,-115 -82,-153 19,22 33,47 43,74 z m -116,-493 c 21,40 40,80 54,121 14,41 25,84 21,126 -3,21 -10,42 -23,58 -13,17 -33,28 -54,36 22,-3 45,-12 62,-28 18,-17 29,-39 33,-63 8,-47 -2,-94 -17,-137 -15,-43 -35,-84 -60,-122 -24,-38 -52,-74 -86,-104 27,36 49,75 70,113 z m -87,452 c 36,25 76,46 118,61 -79,-39 -152,-93 -195,-168 -44,-75 -59,-163 -54,-249 4,-87 26,-172 53,-255 14,-42 30,-82 48,-123 17,-40 36,-80 56,-120 -48,75 -89,154 -121,237 -32,83 -54,170 -59,260 -5,89 11,183 61,259 25,38 57,71 93,98 z m -76,526 c 39,-12 78,-33 105,-68 27,-34 39,-80 34,-123 -4,-44 -22,-84 -46,-118 -24,-35 -55,-64 -88,-89 27,32 52,64 72,99 20,34 36,72 39,110 4,39 -5,78 -26,110 -22,33 -54,59 -90,79 z m 715,-114 c -8,-1 -14,-2 -21,-3 l -1,14 c -1,25 -1,50 -1,75 -1,50 -1,101 -1,151 1,101 3,202 5,302 -14,-99 -27,-199 -40,-300 -6,-50 -12,-100 -18,-150 -2,-25 -5,-51 -7,-76 l -3,-35 c -31,-15 -48,-31 -48,-31 l -198,-286 c 0,0 1,8 2,22 l 5,1 c 0,1 0,0 0,2 v 8 c 0,5 1,12 2,18 1,12 3,25 5,38 3,25 7,51 12,76 9,52 19,103 29,155 21,103 44,205 69,307 26,102 52,204 83,304 16,50 32,100 51,149 9,24 19,49 31,72 12,24 24,47 43,66 -20,-18 -34,-41 -47,-64 -13,-23 -24,-47 -35,-71 -22,-48 -41,-97 -60,-146 -36,-99 -69,-200 -100,-301 -27,-90 -53,-181 -78,-272 -1,6 -2,10 -4,12 -21,29 67,515 30,563 -33,41 -75,148 -149,195 208,99 484,153 762,140 3,-1 7,-1 10,-1 301,-16 571,-106 776,-255 27,-19 52,-40 77,-61 -27,-40 -49,-81 -64,-114 -21,-43 -31,-74 -31,-74 0,0 100,-347 85,-505 l -97,154 -103,160 c -34,53 -69,105 -101,160 27,-57 57,-113 86,-169 l 87,-169 86,-169 19,-38 c -32,-63 -63,-119 -83,-152 -25,68 -50,136 -76,204 -46,116 -93,233 -143,348 -50,115 -101,229 -160,340 -29,56 -60,111 -95,163 -35,51 -72,105 -125,139 52,-36 85,-91 118,-144 32,-53 60,-109 86,-166 53,-113 99,-229 143,-345 41,-108 79,-216 116,-325 -76,45 -347,75 -510,75 -138,0 -343,12 -419,9 z m 626,-898 c -100,1 -356,3 -475,5 -42,64 -104,216 -134,256 -32,42 -8,189 12,233 20,45 117,18 214,13 97,-5 76,-98 87,-143 5,-21 37,-47 83,-32 47,14 57,129 124,159 67,31 176,13 215,-12 37,-24 -87,-451 -87,-451 z M 5419,443 c -51,-54 -114,-98 -183,-126 -34,-13 -70,-23 -107,-28 -36,-3 -76,-4 -108,16 34,-15 71,-11 106,-4 36,6 70,18 103,33 64,30 123,73 171,125 49,53 87,115 113,182 13,34 23,69 29,104 9,36 11,72 15,108 4,-73 -3,-147 -27,-218 -22,-71 -62,-137 -112,-192 z m 203,1139 c -25,72 -56,143 -77,217 -10,38 -19,77 -16,117 2,19 7,39 16,56 9,18 23,32 38,45 -13,-15 -25,-30 -32,-47 -7,-18 -11,-36 -10,-55 -1,-37 9,-74 21,-110 25,-72 57,-142 83,-215 25,-73 46,-149 52,-227 3,-38 3,-77 0,-116 -5,-38 -13,-76 -26,-113 16,75 19,152 8,228 -10,75 -31,148 -57,220 z m 238,1630 c -32,7 -68,1 -94,-17 -26,-19 -33,-53 -24,-85 8,-32 25,-63 46,-90 20,-28 45,-54 70,-78 26,-24 53,-47 82,-68 28,-22 57,-41 87,-61 -65,30 -126,68 -181,115 -28,23 -54,49 -76,78 -22,29 -42,61 -51,99 -4,18 -6,38 0,58 5,20 18,38 34,49 34,22 75,26 111,16 36,-10 69,-32 89,-64 10,-15 17,-34 16,-53 -1,-19 -12,-35 -26,-46 13,12 21,29 20,47 0,17 -8,33 -18,46 -21,28 -52,47 -85,54 z M 3242,8113 v 3 c 8,-1 16,-2 24,-3 l 4,-21 16,-97 32,-194 c 22,-129 44,-258 67,-387 23,-129 49,-257 73,-386 l 78,-385 c 28,-128 55,-257 84,-384 30,-128 58,-255 91,-382 31,-127 65,-254 101,-381 19,-63 37,-126 58,-188 21,-62 41,-125 71,-184 -11,31 -18,63 -26,95 -7,31 -14,63 -20,96 -13,64 -26,128 -38,192 l -74,386 c -24,129 -51,256 -76,384 l -78,385 -83,384 c -30,128 -57,256 -88,383 -30,128 -62,255 -95,382 -17,63 -33,127 -52,190 l -27,95 -5,15 c 47,-7 107,-16 179,-28 162,-372 331,-739 502,-1106 85,-184 174,-368 260,-552 l 264,-549 266,-550 268,-548 266,-549 c 44,-91 88,-183 131,-275 22,-46 43,-92 63,-139 11,-23 21,-47 30,-70 9,-24 19,-48 23,-73 -2,26 -9,51 -16,75 -7,25 -15,49 -23,73 -17,48 -35,96 -53,144 -36,95 -74,190 -113,284 -78,188 -158,375 -242,561 -82,186 -168,371 -253,556 -86,184 -174,368 -262,552 l -268,547 c -91,182 -181,365 -274,546 -184,360 -372,719 -568,1073 482,-83 1461,-284 2146,-431 51,-1060 98,-2029 138,-2787 29,-555 51,-962 69,-1242 8,-122 14,-213 19,-282 -32,-4 -66,-18 -98,-47 -9,-9 -18,-18 -27,-27 -227,197 -546,317 -906,336 -4,0 -7,0 -10,0 -332,16 -653,-55 -881,-186 -102,41 -237,98 -330,73 -25,-7 -52,-21 -80,-40 -53,894 -260,4217 -288,4667 z m -228,462 271,183 -117,-539 -180,26 z m 9,496 65,5780 c 149,112 320,229 401,270 -39,-524 -370,-4805 -466,-6050 z m 57,5894 4,2 c -1,-2 -3,-3 -4,-4 z M 5585,8067 c 5,-106 10,-212 15,-317 -185,39 -662,141 -1141,238 -739,149 -1056,203 -1197,220 l 23,105 z m -23,473 c 6,-127 12,-253 18,-377 l -2294,156 33,148 z m -16,335 c 4,-81 8,-162 12,-243 l -2238,-160 17,78 c 825,177 1880,396 2203,445 2,-40 4,-80 6,-120 z m -10,214 C 5174,9036 4079,8806 3423,8666 l 582,444 1219,930 -1325,-932 -425,-300 116,294 770,1955 c 159,405 319,810 475,1216 20,51 40,101 58,153 l 14,38 c 2,5 4,6 4,7 0,0 2,1 6,-1 9,-3 19,-10 29,-19 9,-8 18,-18 27,-27 70,-81 128,-173 186,-265 87,-142 169,-288 249,-435 42,-860 85,-1734 125,-2585 1,-16 2,-33 3,-50 z M 779,8590 c 59,5 118,17 177,35 182,17 496,83 769,440 41,55 82,117 122,186 l 47,-183 197,-755 C 1862,7612 1605,6817 1523,6564 Z m -9,24 -1,2 c 7,0 14,0 22,0 -7,-1 -14,-1 -21,-2 z m -58,158 c 24,-14 47,-27 67,-38 -19,1 -38,4 -56,8 z M 2,9627 c 15,-54 108,-178 216,-323 83,-110 169,-225 203,-290 29,-53 90,-107 159,-156 l 22,-62 c -3,3 -7,5 -10,8 29,-74 36,-123 63,-153 l 814,-2216 -268,-506 1482,-2357 4,-7 6,-4 c 2,-2 179,-148 358,-291 165,-132 262,-206 321,-246 19,-56 32,-110 26,-146 -17,-108 -62,-214 -14,-267 49,-54 194,7 142,-116 -52,-123 -28,-125 -104,-246 -84,-133 -90,-417 57,-544 148,-127 -3,-177 93,-415 95,-239 53,-294 159,-436 107,-143 199,-363 278,-471 21,-29 42,-64 64,-99 4,-4 8,-7 11,-11 l 41,-33 42,-33 c 15,-9 29,-20 44,-29 59,-38 122,-69 190,-78 68,-10 138,7 194,47 28,20 53,45 75,72 23,27 42,57 58,88 -24,-66 -65,-129 -122,-174 -57,-47 -135,-67 -208,-57 -36,5 -71,17 -105,31 -32,16 -64,34 -93,56 -41,29 -79,63 -114,100 78,-122 177,-248 388,-237 286,16 382,-12 382,-12 299,-61 658,68 852,628 195,560 282,520 346,665 65,144 70,419 14,536 -57,117 -25,204 111,382 104,135 -18,369 22,420 35,46 71,99 95,152 l 1185,392 1615,2834 -6,18 c -17,56 -67,110 -124,173 44,107 205,502 362,898 378,953 364,976 346,1006 l -14,22 -24,2 c -4,1 -9,1 -13,2 l 19,147 c 122,54 281,135 340,222 41,61 138,166 232,268 122,132 228,246 248,298 3,7 5,14 5,21 v 5 c -1,14 -7,26 -18,35 -60,50 -272,9 -315,-17 -9,-6 -21,-14 -33,-24 23,35 46,74 66,115 126,250 252,589 269,651 29,105 3,209 -60,236 -37,16 -95,-18 -139,-51 18,82 41,207 24,253 -23,61 -100,97 -136,99 -5,0 -9,0 -13,-1 -42,-12 -104,-111 -138,-170 -18,22 -44,48 -67,55 -34,9 -66,-3 -94,-24 l 14,842 -519,321 -274,668 -429,-282 -16,-296 -547,-149 -8,-13 c 20,515 56,1969 82,3377 17,961 28,1783 31,2377 5,1101 -17,1128 -34,1150 l -15,17 -21,1 c -17,1 -32,0 -46,-2 -67,-5 -178,-15 -674,266 -279,158 -762,248 -1218,272 -513,27 -989,-30 -1100,-165 l -13,-15 2,-20 c 5,-52 12,-108 19,-169 13,-109 27,-231 38,-375 l -693,-44 c 1,115 4,417 -2,485 -9,101 -359,413 -444,418 h -24 c -122,-6 -234,-93 -280,-134 -64,18 -119,15 -165,-7 -28,-14 -47,-32 -60,-49 -106,18 -180,-48 -213,-101 -98,-35 -129,-133 -132,-190 -41,-124 25,-205 73,-264 17,-20 32,-39 43,-58 22,-39 72,-101 114,-150 -278,58 -1095,225 -1164,229 h -22 l -15,-15 c -21,-21 -31,-31 -1,-753 17,-408 46,-995 86,-1745 7,-122 14,-249 21,-379 l -288,-204 5,-29 c 19,-118 226,-1385 456,-2791 18,-300 36,-610 55,-931 l -166,302 -688,184 -703,390 -399,-792 -317,-239 105,-583 c -26,15 -51,24 -72,17 -65,-20 -102,-120 -84,-228 10,-63 100,-413 199,-675 16,-43 35,-84 54,-121 -11,11 -21,20 -30,27 -40,30 -247,93 -312,49 -14,-9 -21,-23 -22,-39 v -7 c 0,-4 1,-8 2,-13 z m 10098,-99 c 24,0 44,-8 64,-17 20,-10 38,-21 54,-39 -24,1 -44,9 -64,18 -20,9 -38,21 -54,38 z m 57,227 c 28,-1 54,-8 79,-18 24,-10 48,-21 70,-40 -29,1 -54,9 -79,18 -24,10 -48,22 -70,40 z m -688,134 c 26,5 50,3 74,-1 24,-5 47,-11 70,-25 -26,-5 -50,-2 -74,2 -24,4 -48,11 -70,24 z m -31,-429 c -28,-7 -56,-8 -84,-7 -27,2 -55,5 -82,16 28,8 56,9 84,8 27,-2 55,-6 82,-17 z m 239,-32 c -22,-5 -43,-2 -63,2 -20,4 -40,11 -58,24 22,5 43,3 63,-1 20,-5 40,-12 58,-25 z m 89,-21 c 29,2 57,-3 84,-10 27,-8 53,-17 78,-33 -30,-2 -57,3 -84,10 -27,8 -54,17 -78,33 z M 4158,1120 c 32,10 103,-3 137,-21 33,-19 53,-57 53,-57 0,0 36,55 71,50 35,-5 67,-21 67,-21 l 36,-65 57,32 -33,-77 -27,-15 c -36,3 -161,5 -226,82 -64,77 -167,82 -135,92 z m 617,181 c -83,49 -113,121 -113,121 l 78,6 c 0,0 93,53 100,38 7,-15 38,-45 38,-45 0,0 159,-14 172,-9 13,5 -47,-114 -82,-121 -119,-24 -132,-27 -193,10 z m -531,-126 c 49,2 96,-3 144,-9 23,-3 47,-7 71,-11 23,-5 46,-11 70,-16 -24,-5 -49,-3 -73,-3 -24,1 -48,4 -71,7 -48,7 -95,15 -141,32 z m 853,-86 c 37,19 77,29 117,34 20,2 39,4 60,3 20,-1 40,-3 60,-9 -40,-7 -79,-12 -117,-17 -40,-5 -79,-10 -120,-11 z m 20,-122 32,13 c -5,27 17,45 64,46 71,-9 74,-64 74,-64 l 43,64 51,-2 28,-2 c 17,-1 -34,-109 -198,-109 -166,0 -128,65 -150,77 -22,12 56,-23 56,-23 z m -60,815 c 37,-53 -27,-68 -78,-70 -52,-3 -336,17 -336,17 l 87,121 267,-14 z m -907,-819 4,74 c 51,-59 260,-202 359,-161 99,40 124,181 140,158 15,-24 0,0 50,-25 50,-25 -58,-237 -58,-237 -18,1 -287,-37 -495,191 z m 791,33 28,-13 c 0,0 117,-171 174,-157 58,13 305,69 305,69 l -2,-46 c -8,-28 -170,-82 -517,-92 -35,99 -16,251 12,239 z m 1658,2928 24,460 48,921 100,1839 c 32,614 69,1227 104,1841 l 10,181 98,1659 114,1840 c 39,613 76,1226 118,1839 l 123,1840 66,919 33,460 34,459 -20,-460 -22,-460 -44,-921 -97,-1841 c -31,-614 -68,-1227 -102,-1841 l -108,-1840 c -34,-550 -68,-1101 -102,-1651 -43,-676 -86,-1352 -132,-2028 -85,-1225 -163,-2452 -272,-3676 12,153 18,306 27,460 z m -2109,3288 -158,196 c -54,65 -106,130 -162,194 -109,128 -221,254 -340,374 88,-144 184,-283 282,-420 49,-69 100,-135 150,-203 l 153,-200 158,-197 c 54,-64 107,-130 162,-193 109,-128 221,-254 341,-374 -89,144 -184,283 -283,419 -48,69 -99,136 -149,204 z"
     id="path162"
     style="display:inline" /></g></svg>
